<svg width="9" height="5" viewBox="0 0 9 5" version="1.1" xmlns="http://www.w3.org/2000/svg" xmlns:xlink="http://www.w3.org/1999/xlink">
<title>angle-arrow-down</title>
<desc>Created using Figma</desc>
<g id="Canvas" transform="translate(-581 1080)">
<g id="angle-arrow-down">
<g id="Group">
<g id="Vector">
<use xlink:href="#path0_fill" transform="translate(581 -1080)" fill="#FFFFFF"/>
</g>
</g>
</g>
</g>
<defs>
<path id="path0_fill" d="M 8.91007 0.515422L 8.4592 0.0859386C 8.39913 0.028586 8.32992 -9.18291e-10 8.25168 -9.18291e-10C 8.17363 -9.18291e-10 8.10445 0.028586 8.04437 0.0859386L 4.50005 3.46219L 0.95588 0.086029C 0.895771 0.0286764 0.826595 9.02212e-05 0.74845 9.02212e-05C 0.670272 9.02212e-05 0.601097 0.0286764 0.541019 0.086029L 0.090212 0.515542C 0.0300075 0.572774 0 0.638672 0 0.713147C 0 0.787561 0.0301022 0.853459 0.090212 0.910691L 4.29262 4.91412C 4.35269 4.97138 4.4219 5 4.50005 5C 4.57819 5 4.64727 4.97138 4.70732 4.91412L 8.91007 0.910691C 8.97015 0.853429 9 0.787531 9 0.713147C 9 0.638672 8.97015 0.572774 8.91007 0.515422Z"/>
</defs>
</svg>
