<svg width="581" height="484" viewBox="0 0 581 484" fill="none" xmlns="http://www.w3.org/2000/svg">
<path d="M198.668 478.74C197.278 481.521 187.37 483.085 182.591 483.52C197.364 453.103 208.662 378.364 208.662 357.072C208.662 340.039 204.897 335.201 203.014 334.911C199.972 399.656 191.716 407.477 172.162 422.686C152.608 437.894 117.412 431.811 68.31 397.049C19.2084 362.286 -13.8158 298.411 7.04158 216.285C27.8989 134.159 57.8814 75.0634 123.93 59.8549C189.978 44.6464 221.264 81.1468 229.085 121.992C236.907 162.838 200.841 188.041 193.888 191.517C186.936 194.993 178.68 199.338 180.418 201.076C184.329 204.987 227.347 197.166 232.561 194.993C237.776 192.82 244.294 193.255 244.294 197.166C244.294 201.076 245.597 211.94 244.294 216.285C242.99 220.63 227.781 220.196 212.573 221.065C200.406 221.76 199.682 225.989 200.841 228.017C234.734 274.946 229.52 334.042 223.436 375.757C217.353 417.471 200.406 475.264 198.668 478.74Z" fill="#7092C5"/>
<mask id="mask0" mask-type="alpha" maskUnits="userSpaceOnUse" x="0" y="56" width="245" height="428">
<path d="M198.668 478.74C197.278 481.521 187.37 483.085 182.591 483.52C197.364 453.103 208.662 378.364 208.662 357.072C208.662 340.039 204.897 335.201 203.014 334.911C199.972 399.656 191.716 407.477 172.162 422.686C152.608 437.894 117.412 431.811 68.31 397.049C19.2084 362.286 -13.8158 298.411 7.04158 216.285C27.8989 134.159 57.8814 75.0634 123.93 59.8549C189.978 44.6464 221.264 81.1468 229.085 121.992C236.907 162.838 200.841 188.041 193.888 191.517C186.936 194.993 178.68 199.338 180.418 201.076C184.329 204.987 227.347 197.166 232.561 194.993C237.776 192.82 244.294 193.255 244.294 197.166C244.294 201.076 245.597 211.94 244.294 216.285C242.99 220.63 227.781 220.196 212.573 221.065C200.406 221.76 199.682 225.989 200.841 228.017C234.734 274.946 229.52 334.042 223.436 375.757C217.353 417.471 200.406 475.264 198.668 478.74Z" fill="#7092C5"/>
</mask>
<g mask="url(#mask0)">
<path d="M204.676 366.39C210.494 340.88 194.419 311.751 186.214 303.733C198.745 396.377 152.088 429.794 129.71 434.083C201.878 445.832 197.403 398.279 204.676 366.39Z" fill="black" fill-opacity="0.2"/>
<path d="M215.314 225.774C199.156 216.017 176.025 217.177 168.878 219.543C234.494 236.751 247.614 270.669 245.92 283.896C268.787 247.863 235.511 237.971 215.314 225.774Z" fill="black" fill-opacity="0.2"/>
<path d="M221.421 181.86C203.546 200.968 170.411 203.964 159.173 201.657C242.942 160.153 244.496 102.784 235.517 81.8427C285.668 135.051 243.766 157.976 221.421 181.86Z" fill="black" fill-opacity="0.2"/>
<path d="M150.946 369.953L267.721 512.057L278.459 508.356L163.241 360.469L150.946 369.953Z" fill="white"/>
<path d="M265.924 391.384L410.121 229.882L410.121 217.956L254.559 380.805L265.924 391.384Z" fill="white"/>
<path d="M84.8457 46.7198L331.66 209.491L341.158 204.473L102.784 46.7198L84.8457 46.7198Z" fill="white"/>
<path d="M347.281 -116.598L294.715 174.346L303.064 181.105L354.337 -100.106L347.281 -116.598Z" fill="white"/>
<path d="M57.0459 77.2075L-5.20685 331.421L-0.939426 338.249L73.206 67.6469L57.0459 77.2075Z" fill="white"/>
<path d="M174.237 151.486L-13.063 190.336L-17.9772 196.389L159.262 170.848L174.237 151.486Z" fill="white"/>
<path d="M141.177 278.82L189.29 109.135L184.77 102.783L126.518 259.217L141.177 278.82Z" fill="white"/>
<path d="M129.077 258.036L322.492 313.124L325.476 320.326L137.91 280.865L129.077 258.036Z" fill="white"/>
<path d="M129.079 258.036L-61.5738 401.886L-58.5893 409.088L137.912 280.864L129.079 258.036Z" fill="white"/>
<path d="M159.334 354.969L14.0922 467.817L17.4982 478.652L168.479 367.518L159.334 354.969Z" fill="white"/>
<path d="M159.514 354.84L393.253 419.662L387.555 426.352L150.815 362.705L159.514 354.84Z" fill="white"/>
</g>
<path d="M382.691 422.795C384.082 425.576 393.989 427.141 398.769 427.575C383.995 397.158 372.697 322.419 372.697 301.127C372.697 284.094 376.463 279.256 378.346 278.967C381.387 343.711 389.644 351.533 409.197 366.741C428.751 381.95 463.948 375.866 513.049 341.104C562.151 306.342 595.175 242.466 574.318 160.34C553.46 78.2145 523.478 19.1188 457.43 3.91031C391.382 -11.2982 360.095 25.2022 352.274 66.0478C344.452 106.893 380.519 132.096 387.471 135.572C394.424 139.049 402.68 143.394 400.941 145.132C397.031 149.043 354.012 141.221 348.798 139.048C343.584 136.876 337.066 137.31 337.066 141.221C337.066 145.132 335.762 155.995 337.066 160.34C338.369 164.686 353.578 164.251 368.786 165.12C380.953 165.815 381.677 170.045 380.519 172.073C346.625 219.002 351.84 278.097 357.923 319.812C364.007 361.527 380.953 419.319 382.691 422.795Z" fill="#EBC523"/>
<mask id="mask1" mask-type="alpha" maskUnits="userSpaceOnUse" x="336" y="0" width="245" height="428">
<path d="M382.691 422.795C384.082 425.576 393.989 427.141 398.769 427.575C383.995 397.158 372.697 322.419 372.697 301.127C372.697 284.094 376.463 279.256 378.346 278.967C381.387 343.711 389.644 351.533 409.197 366.741C428.751 381.95 463.948 375.866 513.049 341.104C562.151 306.342 595.175 242.466 574.318 160.34C553.46 78.2145 523.478 19.1188 457.43 3.91031C391.382 -11.2982 360.095 25.2022 352.274 66.0478C344.452 106.893 380.519 132.096 387.471 135.572C394.424 139.049 402.68 143.394 400.941 145.132C397.031 149.043 354.012 141.221 348.798 139.048C343.584 136.876 337.066 137.31 337.066 141.221C337.066 145.132 335.762 155.995 337.066 160.34C338.369 164.686 353.578 164.251 368.786 165.12C380.953 165.815 381.677 170.045 380.519 172.073C346.625 219.002 351.84 278.097 357.923 319.812C364.007 361.527 380.953 419.319 382.691 422.795Z" fill="#7092C5"/>
</mask>
<g mask="url(#mask1)">
<path d="M358.265 125.915C376.141 145.023 409.275 148.019 420.514 145.713C336.744 104.209 335.19 46.8392 344.17 25.8981C294.018 79.1066 335.92 102.031 358.265 125.915Z" fill="black" fill-opacity="0.2"/>
<path d="M389.688 345.878C397.783 373.12 427.016 393.434 438.39 397.23C379.374 314.288 403.122 260.059 420.592 245.313C351 268.323 379.57 311.825 389.688 345.878Z" fill="black" fill-opacity="0.2"/>
<path d="M553.687 218.446L595.959 397.451L586.507 403.75L538.692 222.478L553.687 218.446Z" fill="white"/>
<path d="M501.057 322.894L285.204 339.725L275.717 332.498L499.529 307.442L501.057 322.894Z" fill="white"/>
<path d="M336.625 -30.0158L316.533 264.955L306.785 269.47L325.754 -15.7464L336.625 -30.0158Z" fill="white"/>
<path d="M377.724 -33.6532L617.666 70.882L620.511 78.4143L360.325 -26.5923L377.724 -33.6532Z" fill="white"/>
<path d="M365.79 104.58L510.199 -20.8662L517.992 -21.1075L390.267 104.402L365.79 104.58Z" fill="white"/>
<path d="M487.115 155.448L322.98 90.8899L320.666 83.4452L480.405 131.907L487.115 155.448Z" fill="white"/>
<path d="M477.914 133.227L404.524 320.464L408.445 327.203L490.721 154.088L477.914 133.227Z" fill="white"/>
<path d="M476.146 146.529L707.876 68.7457L711.796 75.4843L490.719 154.089L476.146 146.529Z" fill="white"/>
<path d="M536.684 216.037L714.467 168.89L721.022 178.166L541.124 230.916L536.684 216.037Z" fill="white"/>
<path d="M536.473 216.103L446.388 441.315L455.163 440.837L548 213.949L536.473 216.103Z" fill="white"/>
</g>
<path d="M412.56 24.0102C451.05 1.18491 488.645 27.5534 502.631 43.5908C502.631 81.6331 473.54 62.0524 466.826 94.5002C460.113 126.948 437.176 123.032 395.777 116.878C354.378 110.724 364.448 52.5419 412.56 24.0102Z" fill="white" fill-opacity="0.2"/>
<path d="M408.293 321.865C390.976 297.976 406.313 271.84 416.146 261.758C441.359 259.568 430.036 279.745 451.923 282.273C473.809 284.801 472.518 300.046 470.795 327.509C469.071 354.973 429.938 351.728 408.293 321.865Z" fill="white" fill-opacity="0.2"/>
<path d="M168.871 76.5981C130.382 53.7728 92.7869 80.1413 78.8008 96.1787C78.8008 134.221 107.892 114.64 114.605 147.088C121.319 179.536 144.256 175.62 185.655 169.466C227.054 163.312 216.984 105.13 168.871 76.5981Z" fill="white" fill-opacity="0.2"/>
<path d="M90.7631 391.08C73.7846 371.082 89.452 348.749 99.4081 340.081C124.62 337.891 113.042 355.126 134.87 356.975C156.697 358.825 155.205 371.75 153.118 395.027C151.03 418.303 111.986 416.077 90.7631 391.08Z" fill="white" fill-opacity="0.2"/>
</svg>
